<svg xmlns="http://www.w3.org/2000/svg" width="32" height="32" viewBox="0 0 24 24"><path fill="currentColor" d="M7.85453987121582,17.972932815551758L7.85453987121582,17.536571502685547L7.227288246154785,17.536571502685547L6.600038528442383,17.536571502685547L6.600038528442383,12.7506742477417L6.600038528442383,7.965017795562744L7.349340438842773,7.214306831359863L8.09852123260498,6.463602542877197L8.849210739135742,6.463602542877197L9.60002326965332,6.463602542877197L9.60002326965332,12.436332702636719L9.60002326965332,18.409059524536133L12.681795120239258,18.409059524536133L15.76356315612793,18.409059524536133L15.76356315612793,17.972707748413086L15.76356315612793,17.536357879638672L15.136312484741211,17.536357879638672L14.509063720703125,17.536357879638672L14.509063720703125,12.721952438354492L14.509063720703125,7.907565593719482L15.232574462890625,7.185596466064453L15.955955505371094,6.463627815246582L16.70526123046875,6.463627815246582L17.45456314086914,6.463627815246582L17.45456314086914,11.546262741088867L17.45456314086914,16.628877639770508L18.338756561279297,17.518980026245117L19.222946166992188,18.409074783325195L21.611534118652344,18.409074783325195L24,18.409074783325195L24,17.97272300720215L24,17.536375045776367L23.154560089111328,17.536375045776367L22.309120178222656,17.536375045776367L22.309120178222656,12.560736656188965L22.309120178222656,7.585095405578613L21.31206512451172,6.588011264801025L20.31487464904785,5.590921878814697L17.917236328125,5.590921878814697L15.51959228515625,5.590921878814697L14.768899917602539,6.34018611907959L14.018218994140625,7.0894575119018555L13.267526626586914,6.34018611907959L12.516707420349121,5.590921878814697L10.063695907592773,5.590921878814697L7.610561370849609,5.590921878814697L6.859869956970215,6.34018611907959L6.109058380126953,7.0894575119018555L5.358367919921875,6.34018611907959L4.6076812744140625,5.590921878814697L2.3039026260375977,5.590921878814697L-0.0000015497207641601562,5.590921878814697L-0.0000015497207641601562,6.027266979217529L-0.0000015497207641601562,6.463620662689209L0.8454341888427734,6.463620662689209L1.690868854522705,6.463620662689209L1.690868854522705,11.999984741210938L1.690868854522705,17.536344528198242L0.8454341888427734,17.536344528198242L-0.0000015497207641601562,17.536344528198242L-0.0000015497207641601562,17.972698211669922L-0.0000015497207641601562,18.409048080444336L3.9272022247314453,18.409048080444336L7.85453987121582,18.409048080444336Z"/></svg>