<svg width="24" xmlns="http://www.w3.org/2000/svg" height="24" viewBox="0 0 24 24"><defs><linearGradient x1="-162.431" y1="1937.9" x2="-162.431" y2="837.058" gradientUnits="userSpaceOnUse" gradientTransform="translate(15.474 -17.673)scale(.02139)" id="a"><stop offset="0" stop-color="#4425da"/><stop offset="1" stop-color="#6342ff"/></linearGradient></defs><rect rx="5.146" ry="5.146" x=".25" y=".25" width="23.5" height="23.5" style="stroke:none;fill:url(#a);paint-order:stroke fill markers;fill-opacity:1;stroke-width:2;display:inline"/><defs><linearGradient x1="-162.431" y1="837.058" x2="-162.431" y2="1937.9" gradientUnits="userSpaceOnUse" gradientTransform="translate(15.474 -17.673)scale(.02139)" id="b"><stop offset="0" stop-color="#7b7bd1"/><stop offset=".178" stop-color="#3c3d6f"/><stop offset=".543" stop-color="#252042"/></linearGradient></defs><rect rx="5.146" ry="5.146" x=".25" y=".25" width="23.5" height="23.5" style="stroke:url(#b);fill:none;paint-order:stroke fill markers;fill-opacity:1;stroke-width:.2;stroke-linejoin:round;display:inline"/><defs><linearGradient x1="470.066" y1="-656.684" x2="454.613" y2="-1099.207" gradientUnits="userSpaceOnUse" gradientTransform="translate(-1.908 38.41)scale(.03008)" id="c"><stop offset="0" stop-color="#636363" stop-opacity=".949"/><stop offset=".747" stop-color="#e6e6e6"/></linearGradient></defs><path d="M17.512 7.35c-.069.002-.12.052-.178.081L12 10.51Q9.273 8.935 6.545 7.362c-.058-.028-.123-.002-.172.032l-.976.565c-.054.038-.06.11-.056.17v1.123c.008.064.066.105.12.13l6.482 3.742c.058.028.124.003.172-.032l4.698-2.713v6.157c.01.07.084.119.151.113.046-.008.08-.042.12-.06l1.521-.88c.05-.038.059-.107.054-.166V8.057c-.006-.065-.062-.109-.116-.134l-.98-.564a.1.1 0 0 0-.051-.01M5.469 10.587a.16.16 0 0 0-.108.06c-.032.048-.016.107-.02.16v4.806c.004.065.061.109.116.134l1.554.896c.064.023.141-.014.17-.075.015-.044.004-.091.007-.137v-2.933l2.058 1.188c.06.026.125-.005.174-.039l1.382-.798c.053-.045.059-.133.018-.187-.031-.035-.078-.049-.115-.074l-5.183-2.993a.1.1 0 0 0-.053-.008" style="stroke-opacity:1;stroke:none;fill:url(#c);stroke-width:1.40659;stroke-linejoin:bevel;display:inline"/><defs><linearGradient x1="247.135" y1="-843.781" x2="677.511" y2="-911.946" gradientUnits="userSpaceOnUse" gradientTransform="translate(-1.908 38.41)scale(.03008)" id="d"><stop offset="0" stop-color="#bdbdbd"/><stop offset=".07" stop-color="#c4c4c4"/><stop offset="1" stop-color="#efefef"/></linearGradient></defs><path d="m17.511 7.467-5.51 3.182-5.514-3.182-1.025.592v1.185L12 13.019l4.934-2.848v6.365l1.604-.927V8.06Zm-12.05 3.232v4.911l1.607.928V13.29l2.231 1.288 1.44-.831Z" style="stroke:url(#radialGradient79);fill:url(#d);fill-opacity:1;stroke-width:7.6848;stroke-linejoin:round;display:inline"/></svg>