<svg xmlns="http://www.w3.org/2000/svg" version="1.1" xmlns:xlink="http://www.w3.org/1999/xlink" width="42" height="42"><svg width="42" xmlns="http://www.w3.org/2000/svg" height="42" id="SvgjsSvg1017" viewBox="0 0 42 42" xmlns:xlink="http://www.w3.org/1999/xlink" fill="none" version="1.1"><g id="SvgjsG1016" rx="0" ry="0"><g id="SvgjsG1015"><g class="fills" id="SvgjsG1014"><path d="M0,8C0,3.58465576171875,3.58465576171875,0,8,0L34,0C38.41534423828125,0,42,3.58465576171875,42,8L42,34C42,38.41534423828125,38.41534423828125,42,34,42L8,42C3.58465576171875,42,0,38.41534423828125,0,34L0,8" style="fill: rgb(99, 66, 255); fill-opacity: 1;"></path></g></g><g id="SvgjsG1013"><g class="fills" id="SvgjsG1012"><path d="M16.509033203125,26.91064453125L15.1500244140625,26.91064453125L15.1500244140625,16.69244384765625L16.77337646484375,15.0894775390625L18.40008544921875,15.0894775390625L18.40008544921875,27.84210205078125L25.07720947265625,27.84210205078125L25.07720947265625,26.910400390625L23.7181396484375,26.910400390625L23.7181396484375,16.63104248046875L25.28564453125,15.089599609375L26.90911865234375,15.089599609375L26.90911865234375,25.941650390625L28.8248291015625,27.84210205078125L34,27.84210205078125L34,26.910400390625L32.168212890625,26.910400390625L32.168212890625,16.28680419921875L30.00787353515625,14.15789794921875L24.81280517578125,14.15789794921875L23.18646240234375,15.7576904296875L21.55975341796875,14.15789794921875L16.2447509765625,14.15789794921875L14.61810302734375,15.7576904296875L12.99169921875,14.15789794921875L8,14.15789794921875L8,15.0894775390625L9.83184814453125,15.0894775390625L9.83184814453125,26.910400390625L8,26.910400390625L8,27.84210205078125L16.509033203125,27.84210205078125" style="fill: rgb(255, 255, 255); fill-opacity: 1;"></path></g></g></g></svg><style>@media (prefers-color-scheme: light) { :root { filter: none; } }
@media (prefers-color-scheme: dark) { :root { filter: none; } }
</style></svg>